<?xml version="1.0" encoding="utf-8"?>
<!-- Generator: Adobe Illustrator 25.4.0, SVG Export Plug-In . SVG Version: 6.00 Build 0)  -->
<svg version="1.1" id="Ebene_1" xmlns="http://www.w3.org/2000/svg" xmlns:xlink="http://www.w3.org/1999/xlink" x="0px" y="0px"
	 viewBox="0 0 498 826" style="enable-background:new 0 0 498 826;" xml:space="preserve">
<style type="text/css">
	.st0{fill:#FFFFFF;}
</style>
<desc>der Berliner Baer ist das Wappentier der Stadt Berlin</desc>
<path d="M333.4,105c-11.2-5.4-31.4-2.2-50-5.2c-37.4-6-42-16.6-42-24.4c-0.2-8.2-7.6-8.6-7.6,0.2c0.2,52,78.4,25.4,100.6,38.8
	 M79,87.2c0.2-14-9.4-23-17.8-23.8c5,5.8,6,14.2,6.8,22.4c-1.6-11.6-10.2-19.2-17.6-19.6c4,4.2,6.2,12.8,6.6,21.2
	c-1.2-6.4-7.2-16-17.2-17c4.6,4.8,6,13.8,7,22c-1.4-7-8.6-15-16.6-15.6c3.4,2.8,6.2,13,6.8,20.8c-1-3.2-6.6-11-15.4-12
	c4.6,4.2,6.6,14.4,7.4,22.4 M64,298.8c-2.4-11-12-22.6-22.8-21.2c5,3.4,8.8,16.2,10.2,24.4c-3.4-9.2-11.8-19-21.8-17.8
	c5.4,4.8,8.6,16.6,10.6,25.4c-5.4-10.2-12-17.8-21.8-16.6c6.6,6.4,9,17.6,10.6,26.2c-3.2-7.2-10.6-16-20.6-15
	c6.2,5.6,8.8,17.8,11,26.8c-4-5.4-10-13-19.4-12.2c6.2,6,9,17.8,11.6,26.8 M96,690.2c-10.6-6.4-25.2-4.2-32,4.6
	c7.6-1.4,18.8,2.8,23.2,6.4c-7.2-4.6-22.2-1.8-28,6.2c6.8-1.8,17.8,2.8,23.6,6.2c-7.6-2.6-19.4-2-26.8,7c6.2-1.4,16.4,2,23,5.8
	c-9.4-2.2-18.6,1.4-24,7.8c8.2-1.8,17.4,3,23,5.6c-10.6-0.2-17,4-20.8,8.4c6.8-1.4,17.2,2.2,24.8,6.2 M374.2,756
	c-13.8-1.8-25.2,6.6-28.6,16.4c3.8-3,15.8-4.8,23.6-2.4c-10.8-0.6-21.6,8.2-23.8,16.2c4.4-3.6,18.4-4.6,23.6-2.4
	c-9.8,0.4-19.2,7.8-22,16c4.6-3,17.4-4.2,24.6-2.4c-10.6,1.6-18.2,9.2-20.6,16.2c6.4-4.2,14.8-3.8,25.2-3.2
	c-10.8,4-14.4,8.6-18,15.8c6-3.8,16.6-4,27-3.2"/>
<path class="st0" d="M302.6,21.8l-48.8,1.8c-2.4,0.2-4.2,1.4-4.2,4.2c0.2,17.6,3.6,29,16.2,38.2c-1.6,9.8-0.6,14.8,9.6,23
	c1-8,4.2-11.6,9.2-15c0.4,0.2,0.8,0.2,1,0.4c-0.6,3.6-0.6,7.4,0.2,9.6c2,5.6,11.8,5.8,14.4,1.8c2.4,5.8,7.4,6,11.4,6
	c4.2,0,6.2-3,7.6-5.8c2.4,2,4.8,4.2,7,7c7,9.6,8.2,22,8.2,33.8c-2.2,0.2-4.4,0.4-6.6,0.6v-4.8c-0.2-6.8-16-8-19.6-2.2
	c-4-4.4-16.4-3.6-16.4,3.4v2.2c-2.8-3.6-5-7.4-6.8-11.2c-5,3.2-8,5.6-7.2,17c-2.2,0.2-4.4,0.4-6.4,0.6c0.2,13.2,6,16.8,53.2,15.8
	c1.2,13.2-12,20.6-21.8,26.8c-25.6,14.6-52.6,30.6-67.2,57.4c-12.2,21.2-15.2,46.4-13.8,70.8l14-6.2l1.6,7.6
	c-25.2,12-71.2,36.4-101.4,50.4c-7.4,3.4-26.6,8.2-30.6,1.4c-13.8-23.8-24.8-41.8-40.8-60C56.4,287,2,332,12,347.2
	c22.8,34.6,60,84.2,122,84.6c64.2,0.4,120-23.2,132.2-26.8l2.6,8.2c-8.2,3.6-15.4,6.2-24,9c11.2,44,24.2,61.2,54.4,88l-6.2,4.6
	c-5.4-3.2-14.6-13.4-19.6-18.2c-64.2,30.4-88.2,60.8-103.6,92.2c-17,37.8-13.8,80.8-6.6,120.6c1.4,6.6-5.8,9.8-11.2,7.8
	c-14.8-3.4-23-18.2-37.2-23.6c-6.4-2.8-14.8-6-21.8-4.8c-11.4,2-23.6,59.6-12,65.2c21.6,10.6,45.2,12.8,69.2,25.2
	c15.8,6.4,31,16.8,49,14c10.2-1,20.4-8,21.4-18.8c9-38.8,21.6-80,51.2-108c14.2-14,32.6-25.2,50.8-33.8c-7.2-27.6-12.6-55.2-12-84
	l8.8-0.4c6.4,109.6,35.6,132.6,87,183.6c5.2,5.2,4.8,15-2.8,18c-10,5-21.8,5.2-33.2,5.8c-12.2,0.6-3,68.2,15,67.6
	c31.6-1,64.4-25.6,83.4-49.8c8-10,17.6-20,25.2-29.8c9.4-12.2-0.8-26.4-3.6-37.6c-7.8-32-11.4-124-11.8-136.8l11.2,0.2l1.6-23.2
	c-33.4-41.4-28-106.2-41.8-148c-5.4-17-11.4-34.6-11.4-52.6c0-24.4,27.6-70.2,27-111c-0.2-17.2-9.8-39.6-9.6-49.8
	c0.2-29.6,17.2-23.2,16.8-84.8c-0.2-17-2.2-29.6-6.6-47C495.6,21.6,454.6-9.8,431,9.8c-19-5-21.4-10-58.6-10
	c-31.8,0-50,8.6-69.8,21.8 M245,205.2c-58.4-17.2-99.8-25-123-42.6c-23.4-17.8-13-57-41.2-77.8c-14-10.4-58.2,14.2-51.4,24.8
	c43.4,67.6-14.6,83.8,183.6,197C212.2,244,224,231,245,205.2"/>
<path d="M372.2,59.8c-23.6-37.4-42.6-41.2-49.6-14.2c-2.8,11,6.8,10.8,9,2.6c2.6-9.2,7-18.8,24.4,7.8c1.6,2.2,7,3.8,10,3.8
	 M430.6,40.2c5.6-5.6,12.2-10.4,20-13.8c9.4-3.2,4.6-12.8-7.2-8.8c-8,2.6-15.4,8.8-20.2,15.2 M268,67.4c-1.8,6.2,0.4,13.2,5.8,17
	c1-4.4,4.2-8.4,7.6-11.2C275.2,71.4,271,69.2,268,67.4 M300,78c-4-1.2-8.2-2-12.2-3c-0.8,3-0.8,6.2-0.2,8c1.6,4.4,9,4.6,11,1.4
	C299.4,83.2,300,80.6,300,78 M302.4,78.6c-0.6,2.4-1,5.2,0,7.2c2,3.8,5.6,4,8.8,4c3.6,0,5.4-2.4,6.4-4.8
	C313,82,307.8,80.2,302.4,78.6 M291.6,130.6v-1.4c-2.8-3.4-5.2-7.2-7.4-11.2c-4.4,3.2-5,8-4.4,13.6 M307.8,129.2v-5
	c-0.2-6.2-14.2-6.6-14.2,0v6.3 M325.8,127.6v-4.4c0-6-16.2-6.4-16.2,0.2v5.6"/>
</svg>
